<svg id="Camada_1" data-name="Camada 1" xmlns="http://www.w3.org/2000/svg" viewBox="0 0 1118.44 216.81"><title>socxy_logo</title><g style="opacity:0.75"><path d="M283.25,275.59A108.41,108.41,0,1,0,391.66,384,108.41,108.41,0,0,0,283.25,275.59Zm-.38,199.24a90.6,90.6,0,1,1,90.6-90.6A90.69,90.69,0,0,1,282.87,474.83Z" transform="translate(-123.78 -275.59)" style="fill:#2c2f33"/><path d="M440.62,439.27a7.17,7.17,0,0,0,0-10.16l-53.94-53.94a7.17,7.17,0,0,0-10.16,0l-53.94,53.94a7.19,7.19,0,1,0,10.17,10.16l48.85-48.85,48.86,48.85A7.27,7.27,0,0,0,440.62,439.27Z" transform="translate(-123.78 -275.59)" style="fill:#35c84b"/><path d="M233.78,328.73l-48.86,48.85-48.85-48.85a7.19,7.19,0,0,0-10.17,10.16l53.94,53.94a7.17,7.17,0,0,0,10.16,0l53.94-53.94a7.18,7.18,0,1,0-10.16-10.16Z" transform="translate(-123.78 -275.59)" style="fill:#fd615f"/><path d="M575.5,349.91a34.49,34.49,0,0,0-5.1-3.79,62,62,0,0,0-9-4.7,78.16,78.16,0,0,0-11.49-3.9,50.09,50.09,0,0,0-12.6-1.6q-11.4,0-17,4.2t-5.6,11.79a12.11,12.11,0,0,0,2.1,7.3,18.08,18.08,0,0,0,6.1,5.1,51,51,0,0,0,10.09,4q6.11,1.8,14.1,3.8,10.39,2.79,18.89,6a51.36,51.36,0,0,1,14.39,8,33.06,33.06,0,0,1,9.1,11.49q3.19,6.71,3.2,16.5,0,11.4-4.3,19.49a36.25,36.25,0,0,1-11.59,13.1A50.46,50.46,0,0,1,560,454a84.39,84.39,0,0,1-19.89,2.3,106.86,106.86,0,0,1-31.59-4.8,97.64,97.64,0,0,1-28-13.59l12.19-23.79a38.5,38.5,0,0,0,6.5,4.7,99.5,99.5,0,0,0,11.09,5.79,85.54,85.54,0,0,0,14.2,4.9,63.7,63.7,0,0,0,16,2q22.8,0,22.79-14.59a12,12,0,0,0-2.6-7.8,22.06,22.06,0,0,0-7.4-5.6,70.2,70.2,0,0,0-11.59-4.39q-6.8-2-15.19-4.4a129.67,129.67,0,0,1-17.7-6.1,46.42,46.42,0,0,1-12.49-7.8,29.31,29.31,0,0,1-7.5-10.39,35.94,35.94,0,0,1-2.5-14.1,44.08,44.08,0,0,1,4-19.19,38.83,38.83,0,0,1,11.1-14,50.34,50.34,0,0,1,16.49-8.49,68.19,68.19,0,0,1,20.19-2.9,78.41,78.41,0,0,1,27.59,4.7,102.92,102.92,0,0,1,22,11.09Z" transform="translate(-123.78 -275.59)" style="fill:#2c2f33"/><path d="M698.05,455.67a64.41,64.41,0,0,1-28.29-6.1A69.43,69.43,0,0,1,648,433.38a75.13,75.13,0,0,1-19.09-49.68,71.42,71.42,0,0,1,5.3-27.19,75.23,75.23,0,0,1,14.59-23,69.6,69.6,0,0,1,22.1-15.89,65.55,65.55,0,0,1,27.78-5.9,62.28,62.28,0,0,1,28.09,6.3,70.08,70.08,0,0,1,21.69,16.49,75.93,75.93,0,0,1,14,23.19,73,73,0,0,1,5,26.39,71.87,71.87,0,0,1-5.2,27.09A73.65,73.65,0,0,1,747.82,434a69.12,69.12,0,0,1-22,15.79A65.43,65.43,0,0,1,698.05,455.67Zm-41.19-72a57,57,0,0,0,2.8,17.79,47.38,47.38,0,0,0,8.1,15.2,40.12,40.12,0,0,0,13,10.59,40.25,40.25,0,0,0,35.19-.1,40.24,40.24,0,0,0,13-10.89,48.59,48.59,0,0,0,8-15.3,56.71,56.71,0,0,0,2.7-17.29,55.36,55.36,0,0,0-2.9-17.79,49.32,49.32,0,0,0-8.2-15.2,39.2,39.2,0,0,0-13-10.49,40.48,40.48,0,0,0-35.09.2,39.37,39.37,0,0,0-13,10.79,48.54,48.54,0,0,0-7.9,15.2A56.76,56.76,0,0,0,656.86,383.7Z" transform="translate(-123.78 -275.59)" style="fill:#2c2f33"/><path d="M804,382.7A73.38,73.38,0,0,1,808.7,357a68.85,68.85,0,0,1,35.68-38.88q13-6.19,29.59-6.2,19.59,0,33.89,8.6a55,55,0,0,1,21.29,22.39L908,357.51a36.15,36.15,0,0,0-6.8-10.09,34.23,34.23,0,0,0-8.59-6.5,38.57,38.57,0,0,0-9.6-3.5,45.72,45.72,0,0,0-9.8-1.1,37.19,37.19,0,0,0-18.09,4.2,39.77,39.77,0,0,0-12.79,10.89,48,48,0,0,0-7.7,15.2A57.22,57.22,0,0,0,832,383.5a55,55,0,0,0,3,18.09,48.28,48.28,0,0,0,8.49,15.3,42.46,42.46,0,0,0,13.2,10.59,36,36,0,0,0,16.89,4,44.48,44.48,0,0,0,10-1.2,37.49,37.49,0,0,0,18.59-10.49,31,31,0,0,0,6.4-9.9l22.59,13a42.6,42.6,0,0,1-9.7,14.1,62.4,62.4,0,0,1-14.19,10.3,72.81,72.81,0,0,1-16.89,6.39,73.82,73.82,0,0,1-17.6,2.2,60.42,60.42,0,0,1-27.79-6.4,72.33,72.33,0,0,1-21.69-16.69,77.51,77.51,0,0,1-14.19-23.39A73,73,0,0,1,804,382.7Z" transform="translate(-123.78 -275.59)" style="fill:#2c2f33"/><path d="M987.33,312.73l35.38,52.78,35.19-52.78h29.79l-50.58,72,49,70H1056.3l-33.59-50.78-33.78,50.78h-30l49-70-50.58-72Z" transform="translate(-123.78 -275.59)" style="fill:#2c2f33"/><path d="M1141.86,312.73l35,68.37,35.58-68.37h29.79l-51.58,92.36v49.58h-27.39v-50l-51.38-92Z" transform="translate(-123.78 -275.59)" style="fill:#2c2f33"/></g></svg>