<svg id="Camada_1" data-name="Camada 1" xmlns="http://www.w3.org/2000/svg" xmlns:xlink="http://www.w3.org/1999/xlink" viewBox="0 0 451.81 194"><defs><style>.cls-1{fill-rule:evenodd;fill:url(#Gradiente_sem_nome_2);}.cls-2{fill:#3e4f60;}</style><linearGradient id="Gradiente_sem_nome_2" x1="893.72" y1="-464.71" x2="1014.94" y2="-464.71" gradientTransform="translate(-202.53 1004.71)" gradientUnits="userSpaceOnUse"><stop offset="0" stop-color="#00c6ff"/><stop offset="1" stop-color="#0072ff"/></linearGradient></defs><title>socxy_logo</title><path class="cls-1" d="M812.41,527.87h-48.5L800.28,443,691.19,552.61h48.5L703.25,637Z" transform="translate(-691.19 -443)"/><path class="cls-2" d="M884.44,524.56a15.57,15.57,0,0,0-2.31-1.72,27.34,27.34,0,0,0-4.08-2.13,36.42,36.42,0,0,0-5.2-1.77,23,23,0,0,0-5.71-.72q-5.16,0-7.7,1.9a6.29,6.29,0,0,0-2.53,5.34,5.45,5.45,0,0,0,1,3.31,8.05,8.05,0,0,0,2.76,2.31,23.35,23.35,0,0,0,4.57,1.81c1.84.54,4,1.12,6.39,1.72,3.14.85,6,1.75,8.56,2.72a23.08,23.08,0,0,1,6.52,3.62,15.06,15.06,0,0,1,4.12,5.21,17.33,17.33,0,0,1,1.45,7.47,18.6,18.6,0,0,1-2,8.83,16.36,16.36,0,0,1-5.25,5.93,23,23,0,0,1-7.61,3.31,38.4,38.4,0,0,1-9,1,48.7,48.7,0,0,1-14.31-2.17,44.33,44.33,0,0,1-12.68-6.16l5.52-10.78a18.28,18.28,0,0,0,2.95,2.13,45.18,45.18,0,0,0,5,2.62,38.74,38.74,0,0,0,6.43,2.22,28.81,28.81,0,0,0,7.25.91q10.32,0,10.32-6.61a5.42,5.42,0,0,0-1.17-3.53,10,10,0,0,0-3.35-2.54,32.39,32.39,0,0,0-5.26-2q-3.07-.92-6.88-2a58.92,58.92,0,0,1-8-2.77,21,21,0,0,1-5.66-3.53,13.18,13.18,0,0,1-3.39-4.71,16.21,16.21,0,0,1-1.13-6.38,20,20,0,0,1,1.81-8.7,17.56,17.56,0,0,1,5-6.34,23,23,0,0,1,7.48-3.85,31,31,0,0,1,9.14-1.31,35.46,35.46,0,0,1,12.5,2.13,46.36,46.36,0,0,1,10,5Z" transform="translate(-691.19 -443)"/><path class="cls-2" d="M929.09,572.47a29.24,29.24,0,0,1-12.82-2.76,31.67,31.67,0,0,1-9.87-7.34,34,34,0,0,1-8.65-22.51,32.29,32.29,0,0,1,2.4-12.31,33.91,33.91,0,0,1,6.61-10.42,31.48,31.48,0,0,1,10-7.2,29.71,29.71,0,0,1,12.59-2.67,28.22,28.22,0,0,1,12.72,2.85,31.9,31.9,0,0,1,9.83,7.48,34.27,34.27,0,0,1,6.34,10.5,33.07,33.07,0,0,1,2.26,12,32.55,32.55,0,0,1-2.35,12.27,33.5,33.5,0,0,1-6.52,10.32,31.33,31.33,0,0,1-10,7.16A29.7,29.7,0,0,1,929.09,572.47Zm-18.66-32.61a25.69,25.69,0,0,0,1.27,8.06,21.3,21.3,0,0,0,3.67,6.89,18.22,18.22,0,0,0,5.88,4.8,16.94,16.94,0,0,0,7.93,1.81,16.76,16.76,0,0,0,8-1.86,18.13,18.13,0,0,0,5.89-4.93,22,22,0,0,0,3.62-6.93,25.62,25.62,0,0,0,1.22-7.84,25.25,25.25,0,0,0-1.31-8.06,22.34,22.34,0,0,0-3.71-6.88,17.71,17.71,0,0,0-5.89-4.75,18.3,18.3,0,0,0-15.89.09,17.89,17.89,0,0,0-5.89,4.89,22,22,0,0,0-3.58,6.88A25.91,25.91,0,0,0,910.43,539.86Z" transform="translate(-691.19 -443)"/><path class="cls-2" d="M966.22,539.41a33.34,33.34,0,0,1,2.13-11.64,31.16,31.16,0,0,1,16.16-17.61,30.8,30.8,0,0,1,13.4-2.81,29.22,29.22,0,0,1,15.36,3.9,24.81,24.81,0,0,1,9.64,10.14l-9.6,6.61a16.14,16.14,0,0,0-3.08-4.57,15.51,15.51,0,0,0-3.89-2.95,17.6,17.6,0,0,0-4.35-1.58,20.77,20.77,0,0,0-4.44-.5,16.8,16.8,0,0,0-8.19,1.9,18.06,18.06,0,0,0-5.8,4.94,21.89,21.89,0,0,0-3.49,6.88,26.23,26.23,0,0,0-1.17,7.65,24.88,24.88,0,0,0,1.36,8.2,21.64,21.64,0,0,0,3.84,6.93,19.38,19.38,0,0,0,6,4.8,16.32,16.32,0,0,0,7.65,1.81,20.26,20.26,0,0,0,4.53-.54,17.74,17.74,0,0,0,4.49-1.72,17.07,17.07,0,0,0,3.93-3,13.91,13.91,0,0,0,2.9-4.48l10.24,5.88a19.24,19.24,0,0,1-4.4,6.39,27.9,27.9,0,0,1-6.43,4.66,32.42,32.42,0,0,1-7.65,2.9,33.21,33.21,0,0,1-8,1,27.44,27.44,0,0,1-12.59-2.9A32.66,32.66,0,0,1,975,562.1a35,35,0,0,1-6.43-10.6A33,33,0,0,1,966.22,539.41Z" transform="translate(-691.19 -443)"/><path class="cls-2" d="M1038.4,507.71l16,23.91,15.94-23.91h13.49L1061,540.32,1083.14,572h-13.5l-15.21-23-15.31,23h-13.58l22.19-31.69-22.92-32.61Z" transform="translate(-691.19 -443)"/><path class="cls-2" d="M1097.54,507.71l15.85,31,16.12-31H1143l-23.37,41.84V572h-12.4V549.37L1084,507.71Z" transform="translate(-691.19 -443)"/></svg>